# xmcd CD database file
#
# Track frame offsets:
#	183
#	10635
#	23740
#	35138
#	47863
#	61483
#	73175
#	83005
#	93955
#	105855
#	114940
#	127773
#	134873
#	146305
#	159035
#	174263
#
# Disc length: 2495 seconds
#
# Revision: 0
# Processed by: cddbd v1.4PL0 Copyright (c) Steve Scherf et al.
# Submitted via: CDex 1.50beta10
#
DISCID=c209bd10
DTITLE=Sonny Boy Williamson - One Way Out
DYEAR=1992
DGENRE=Blues
TTITLE0=Let Your Conscience Be Your Guide
TTITLE1=Work With Me
TTITLE2=Born Blind
TTITLE3=Keep It To Yourself
TTITLE4=Don't Lose Your Eye
TTITLE5=Good Evening Everybody
TTITLE6=Too Close Together
TTITLE7=Got To Move
TTITLE8=This Is My Appartement
TTITLE9=One Way Out
TTITLE10=Like Wolf
TTITLE11=I Wonder Why
TTITLE12=She Got Next To Me
TTITLE13=Keep Your Hand Out Of My Pocket
TTITLE14=Cross My Heart
TTITLE15=Too Young To Die
EXTD=YEAR: 1992
EXTT0=
EXTT1=
EXTT2=
EXTT3=
EXTT4=
EXTT5=
EXTT6=
EXTT7=
EXTT8=
EXTT9=
EXTT10=
EXTT11=
EXTT12=
EXTT13=
EXTT14=
EXTT15=
PLAYORDER=
